HIERARCHY
ROOT root
{
	OFFSET 0.000000 0.000000 0.000000
	CHANNELS 6 Xposition Yposition Zposition Zrotation Yrotation Xrotation
	JOINT lhip
	{
		OFFSET 0.058581 -0.082280 -0.017664
		CHANNELS 3 Zrotation Yrotation Xrotation
		JOINT lknee
		{
			OFFSET 0.043451 -0.386469 0.008037
			CHANNELS 3 Zrotation Yrotation Xrotation
			JOINT lankle
			{
				OFFSET -0.014790 -0.426874 -0.037428
				CHANNELS 3 Zrotation Yrotation Xrotation
				JOINT ltoe
				{
					OFFSET 0.041054 -0.060286 0.122042
					CHANNELS 3 Zrotation Yrotation Xrotation
					End Site
					{
						OFFSET 0.000000 0.000000 0.000000
					}
				}
			}
		}
	}
	JOINT rhip
	{
		OFFSET -0.060310 -0.090513 -0.013543
		CHANNELS 3 Zrotation Yrotation Xrotation
		JOINT rknee
		{
			OFFSET -0.043257 -0.383688 -0.004843
			CHANNELS 3 Zrotation Yrotation Xrotation
			JOINT rankle
			{
				OFFSET 0.019056 -0.420046 -0.034562
				CHANNELS 3 Zrotation Yrotation Xrotation
				JOINT rtoe
				{
					OFFSET -0.034840 -0.062106 0.130323
					CHANNELS 3 Zrotation Yrotation Xrotation
					End Site
					{
						OFFSET 0.000000 0.000000 0.000000
					}
				}
			}
		}
	}
	JOINT lowerback
	{
		OFFSET 0.004439 0.124404 -0.038385
		CHANNELS 3 Zrotation Yrotation Xrotation
		JOINT upperback
		{
			OFFSET 0.004488 0.137956 0.026820
			CHANNELS 3 Zrotation Yrotation Xrotation
			JOINT chest
			{
				OFFSET -0.002265 0.056032 0.002855
				CHANNELS 3 Zrotation Yrotation Xrotation
				JOINT lowerneck
				{
					OFFSET -0.013390 0.211636 -0.033468
					CHANNELS 3 Zrotation Yrotation Xrotation
					JOINT upperneck
					{
						OFFSET 0.010113 0.088937 0.050410
						CHANNELS 3 Zrotation Yrotation Xrotation
						End Site
						{
							OFFSET 0.000000 0.000000 0.000000
						}
					}
				}
				JOINT lclavicle
				{
					OFFSET 0.071702 0.114000 -0.018898
					CHANNELS 3 Zrotation Yrotation Xrotation
					JOINT lshoulder
					{
						OFFSET 0.122921 0.045205 -0.019046
						CHANNELS 3 Zrotation Yrotation Xrotation
						JOINT lelbow
						{
							OFFSET 0.255332 -0.015649 -0.022946
							CHANNELS 3 Zrotation Yrotation Xrotation
							JOINT lwrist
							{
								OFFSET 0.265709 0.012698 -0.007375
								CHANNELS 3 Zrotation Yrotation Xrotation
								End Site
								{
									OFFSET 0.000000 0.000000 0.000000
								}
							}
						}
					}
				}
				JOINT rclavicle
				{
					OFFSET -0.082954 0.112472 -0.023707
					CHANNELS 3 Zrotation Yrotation Xrotation
					JOINT rshoulder
					{
						OFFSET -0.113228 0.046853 -0.008472
						CHANNELS 3 Zrotation Yrotation Xrotation
						JOINT relbow
						{
							OFFSET -0.260127 -0.014369 -0.031269
							CHANNELS 3 Zrotation Yrotation Xrotation
							JOINT rwrist
							{
								OFFSET -0.269108 0.006794 -0.006027
								CHANNELS 3 Zrotation Yrotation Xrotation
								End Site
								{
									OFFSET 0.000000 0.000000 0.000000
								}
							}
						}
					}
				}
			}
		}
	}
}
MOTION
Frames: 5
Frame Time: 0.033333
0.909796 0.369153 1.070520 91.636182 3.560056 86.663443 3.691266 -0.546933 4.751448 -4.032713 -7.130621 12.607526 -3.999160 14.855497 4.881235 0.000000 -0.000000 0.000000 -1.309248 -1.975134 -14.933603 -0.932380 -13.844049 53.181445 1.005797 -16.218861 -2.341106 0.000000 -0.000000 0.000000 -4.077096 -2.163573 6.149347 3.580654 -3.708053 5.153564 1.195346 -2.094037 -1.087616 7.340657 -3.126281 -5.664206 8.654878 -4.501412 -9.963910 -23.146796 1.537290 -0.248993 -41.851736 -2.860794 10.555670 -8.597622 -57.411741 21.533756 3.075054 -2.978826 0.941846 24.358423 0.677447 -3.582880 47.671415 -2.109529 20.364616 5.957607 76.433095 24.374730 -14.699724 6.675013 0.884174 
0.956090 0.375481 1.084111 93.533156 4.226794 85.424981 4.649988 0.362233 6.960358 -3.870159 -9.081693 13.649256 -4.778081 14.978535 1.782547 0.000000 -0.000000 0.000000 -1.175824 -2.156671 -17.679844 0.692340 -16.221215 47.102927 3.193448 -14.437950 -5.090458 0.000000 -0.000000 0.000000 -3.470532 -3.590673 8.036833 5.037247 -5.745601 4.849031 2.204091 -3.465583 -1.216232 7.056109 -1.996305 -4.198180 8.327137 -4.156573 -11.191756 -20.208878 -0.024648 0.099746 -38.393742 -3.787186 9.975229 -15.063463 -61.240911 28.325251 1.486085 -4.633038 0.707443 22.773497 -0.590450 -5.262165 47.313174 -4.524371 18.423069 2.744446 82.540515 21.204111 -14.716332 7.300352 -0.090942 
1.002038 0.381965 1.085413 94.551652 4.454521 84.299068 5.099796 1.197530 9.252278 -2.855497 -10.079644 12.698518 -4.311681 15.799190 -1.968922 0.000000 -0.000000 0.000000 -1.210518 -2.162800 -19.825843 2.035367 -16.451741 38.970885 4.743291 -14.402487 -7.598740 0.000000 -0.000000 0.000000 -2.992814 -4.381935 9.775404 5.877431 -7.005907 4.007198 2.899873 -4.851283 -0.350614 6.986670 -1.284183 -3.905173 8.259783 -3.696101 -11.302797 -16.723270 -1.241040 -0.382566 -34.389227 -5.554984 9.013944 -21.231027 -63.747095 33.794717 0.545590 -5.289836 -1.109771 21.304798 -2.102926 -6.575213 47.396216 -5.670435 17.127488 -38.547275 86.904693 -19.634538 -15.252095 7.891700 1.063015 
1.047140 0.387983 1.075132 94.695460 4.190039 83.435716 5.272909 2.716645 11.369412 -1.593060 -10.796099 9.745222 -3.720187 17.133612 -5.225634 0.000000 -0.000000 0.000000 -1.186395 -1.833922 -21.825395 2.237123 -14.789125 29.714465 6.183351 -15.248968 -9.695817 0.000000 -0.000000 0.000000 -3.010605 -4.671240 11.622355 6.476339 -7.695205 2.585808 3.626970 -5.694461 0.146901 6.760455 -0.332514 -3.239918 8.093317 -3.608921 -10.164278 -13.882705 -2.965011 -0.625858 -28.957010 -6.903021 7.493472 -25.633738 -64.980962 36.625530 0.548846 -5.889988 -2.317544 19.934077 -3.046578 -7.653351 47.468019 -7.482575 15.862189 -111.890638 84.509247 -92.288126 -16.087358 7.768976 2.639596 
1.091504 0.393304 1.053765 94.538028 3.565168 82.823968 5.422443 4.889824 12.654004 -0.869498 -11.160626 6.881876 -3.455019 17.756661 -6.781060 0.000000 -0.000000 0.000000 -1.149802 -1.598872 -23.890311 1.332916 -11.941320 20.271053 7.289738 -16.236048 -10.680292 0.000000 -0.000000 0.000000 -3.527648 -4.538881 13.973055 7.099287 -8.295396 0.682652 4.523648 -6.037733 -0.331962 6.125103 0.265557 -2.803404 8.149515 -3.682540 -7.613533 -11.169622 -4.894191 -1.150406 -23.159727 -7.628695 5.803114 -28.470861 -64.391662 37.613628 2.144814 -6.647637 -1.784205 18.400992 -3.296315 -9.784132 47.131429 -10.901737 14.791494 -125.164020 79.866192 -105.083927 -17.226956 6.850580 3.462089 
